#!OML:ASF F:\VICON\USERDATA\INSTALL\rory3\rory3.ASF
:FULLY-SPECIFIED
:DEGREES
750
root -2.5145 21.6492 -26.9925 -312.975 -4.03434 20.5396
lowerback -17.0707 -9.39682 -10.9186
upperback -16.3558 -11.6308 -3.15744
thorax -7.40967 -5.20202 1.18741
lowerneck -15.559 2.06137 2.51678
upperneck 44.7162 1.91413 0.0435837
head 20.2438 1.04889 -0.0865044
rclavicle 8.94531e-015 -4.17448e-014
rhumerus 48.0378 -37.0519 -12.1911
rradius 67.1749
rwrist -73.6013
rhand -16.7211 14.0403
rfingers 7.12502
rthumb 9.50449 -15.7254
lclavicle 8.94531e-015 -4.17448e-014
lhumerus 56.2657 22.1257 -12.2691
lradius 59.2687
lwrist -24.6457
lhand -7.61809 24.042
lfingers 7.12502
lthumb 18.2763 53.2034
rfemur -49.1692 5.42416 368.215
rtibia 35.5038
rfoot 149.178 149.823
rtoes 55.1861
lfemur 10.0991 -14.2749 -3.73781
ltibia 33.2928
lfoot 19.9343 43.7616
ltoes 33.9138
751
root -2.55922 21.5314 -27.0677 -311.402 -1.93059 21.249
lowerback -16.7807 -9.84623 -10.4026
upperback -17.1672 -12.4205 -3.10145
thorax -8.56273 -5.588 0.994854
lowerneck -14.9058 1.89407 2.00737
upperneck 45.0138 1.65395 0.507681
head 20.2315 0.927208 0.18313
rclavicle -2.13694e-014 -3.33958e-014
rhumerus 47.3081 -36.4925 -11.2534
rradius 66.8994
rwrist -75.6074
rhand -17.5269 14.5192
rfingers 7.12502
rthumb 8.72689 -15.2804
lclavicle -2.13694e-014 -3.33958e-014
lhumerus 56.8065 21.5712 -10.6926
lradius 59.0421
lwrist -24.4819
lhand -6.9361 23.4609
lfingers 7.12502
lthumb 18.9323 52.5595
rfemur -51.4635 5.27038 366.05
rtibia 33.1571
rfoot 144.521 149.93
rtoes 55.8549
lfemur 10.0791 -14.6199 -0.1435
ltibia 33.2287
lfoot 19.1437 44.1851
ltoes 34.026
752
root -2.60739 21.3984 -27.116 -311.537 1.1107 23.5485
lowerback -16.1365 -10.9406 -11.0354
upperback -16.3843 -13.8149 -3.65079
thorax -7.89536 -6.30013 0.555568
lowerneck -14.7831 1.78198 1.97523
upperneck 44.6742 1.30522 0.96386
head 19.9493 0.855659 0.343872
rclavicle 7.72775e-014 5.12864e-014
rhumerus 46.6634 -37.1293 -10.8177
rradius 66.5411
rwrist -77.078
rhand -18.3868 15.2293
rfingers 7.12502
rthumb 7.89699 -14.6032
lclavicle 7.72775e-014 5.12864e-014
lhumerus 57.3689 22.213 -9.66365
lradius 58.7556
lwrist -24.0839
lhand -6.55837 23.0934
lfingers 7.12502
lthumb 19.2955 52.1562
rfemur -51.0101 6.48035 361.839
rtibia 31.1187
rfoot 134.234 153.92
rtoes 57.3188
lfemur 10.6985 -16.4131 3.31348
ltibia 33.0724
lfoot 20.1563 44.951
ltoes 34.6323
753
root -2.64632 21.25 -27.1965 -309.944 2.74103 24.9503
lowerback -16.9381 -11.7376 -11.1915
upperback -16.396 -14.6969 -3.77623
thorax -7.47032 -6.77165 0.20803
lowerneck -14.2424 1.8171 1.6303
upperneck 44.2058 1.35136 1.34668
head 19.461 0.872046 0.592746
rclavicle -6.2319e-014 -1.25632e-013
rhumerus 46.8264 -37.6999 -10.8712
rradius 66.0488
rwrist -77.7946
rhand -18.4657 15.1437
rfingers 7.12502
rthumb 7.82083 -14.6917
lclavicle -6.2319e-014 -1.25632e-013
lhumerus 57.1621 22.5046 -9.14566
lradius 58.4654
lwrist -23.2831
lhand -6.65406 22.7653
lfingers 7.12502
lthumb 19.2035 51.8372
rfemur -52.7773 7.28564 357.456
rtibia 29.2319
rfoot 126.381 158.085
rtoes 58.714
lfemur 10.0049 -17.1617 6.09264
ltibia 33.3759
lfoot 20.3633 45.8482
ltoes 35.0796
754
root -2.68108 21.0679 -27.2524 -309.866 4.74294 26.8477
lowerback -15.7772 -12.216 -11.9363
upperback -15.5799 -15.3671 -4.49953
thorax -7.11559 -7.09327 -0.161106
lowerneck -16.0686 1.47571 1.80831
upperneck 44.3147 0.577404 1.68207
head 20.0792 0.661315 0.600111
rclavicle -5.47652e-014 -9.93923e-014
rhumerus 45.9377 -39.4488 -10.2379
rradius 65.3605
rwrist -77.8874
rhand -17.7501 14.4711
rfingers 7.12502
rthumb 8.51146 -15.3374
lclavicle -5.47652e-014 -9.93923e-014
lhumerus 58.2891 23.4779 -7.86119
lradius 57.9893
lwrist -22.742
lhand -6.79575 22.3335
lfingers 7.12502
lthumb 19.0673 51.4189
rfemur -52.426 9.79777 352.154
rtibia 27.9476
rfoot 116.82 166.124
rtoes 60.3293
lfemur 10.715 -19.2974 8.34635
ltibia 33.5047
lfoot 22.3987 45.9032
ltoes 34.5143
755
root -2.70154 20.8619 -27.3203 -309.521 5.91203 28.4252
lowerback -14.582 -12.5664 -12.9734
upperback -15.887 -15.9985 -4.71297
thorax -7.92737 -7.26254 0.286567
lowerneck -15.161 1.24197 1.19335
upperneck 44.3173 0.374857 1.92329
head 19.8032 0.516427 0.783586
rclavicle -5.51627e-015 -6.75868e-014
rhumerus 45.764 -39.4068 -9.5453
rradius 64.6573
rwrist -77.7676
rhand -17.104 13.9932
rfingers 7.12502
rthumb 9.13501 -15.789
lclavicle -5.51627e-015 -6.75868e-014
lhumerus 58.532 22.6596 -6.73075
lradius 57.5181
lwrist -22.3178
lhand -7.09828 21.9805
lfingers 7.12502
lthumb 18.7763 51.0943
rfemur -51.9697 6.33536 351.402
rtibia 26.966
rfoot 115.861 169.678
rtoes 61.1514
lfemur 11.2124 -20.521 10.0983
ltibia 34.0883
lfoot 27.0743 44.2046
ltoes 32.1867
756
root -2.70605 20.6375 -27.412 -308.822 7.03036 29.9143
lowerback -15.3123 -12.9235 -13.5237
upperback -14.7954 -16.0964 -5.44516
thorax -6.3609 -7.40277 -0.528695
lowerneck -15.8926 1.01849 1.25817
upperneck 43.6632 -0.171674 2.36524
head 19.5891 0.38999 0.876845
rclavicle 8.21975e-014 7.95139e-014
rhumerus 45.6162 -41.4091 -9.72418
rradius 63.7326
rwrist -76.9456
rhand -16.438 13.5437
rfingers 7.12502
rthumb 9.77763 -16.2093
lclavicle 8.21975e-014 7.95139e-014
lhumerus 59.5101 23.841 -5.71384
lradius 56.8779
lwrist -22.2876
lhand -7.73112 21.7354
lfingers 7.12502
lthumb 18.1675 50.907
rfemur -52.2603 2.87196 350.729
rtibia 26.6836
rfoot 115.245 171.372
rtoes 61.3415
lfemur 11.4057 -21.5159 11.8922
ltibia 34.5235
lfoot 33.801 40.5259
ltoes 27.6204
